<?xml version="1.0" standalone="no"?>
<!DOCTYPE svg PUBLIC "-//W3C//DTD SVG 20010904//EN"
 "http://www.w3.org/TR/2001/REC-SVG-20010904/DTD/svg10.dtd">
<svg version="1.0" xmlns="http://www.w3.org/2000/svg"
 width="1280.000000pt" height="1281.000000pt" viewBox="0 0 1280.000000 1281.000000"
 preserveAspectRatio="xMidYMid meet">

<g transform="translate(0.000000,1281.000000) scale(0.100000,-0.100000)"
fill="#000000" stroke="none">
<path d="M0 9605 l0 -3205 155 0 155 0 0 3045 0 3045 6090 0 6090 0 0 -6085 0
-6085 -3045 0 -3045 0 0 -160 0 -160 3200 0 3200 0 0 6405 0 6405 -6400 0
-6400 0 0 -3205z"/>
<path d="M2270 10075 l0 -365 795 0 795 0 0 -2967 c0 -2556 -2 -2980 -15
-3058 -29 -180 -85 -296 -195 -405 -133 -133 -282 -187 -541 -197 -166 -6
-276 6 -385 42 -169 56 -286 157 -358 308 -84 175 -96 281 -96 875 l0 412
-426 0 -427 0 6 -497 c6 -541 13 -625 66 -834 148 -587 582 -941 1251 -1024
142 -17 450 -20 585 -5 733 81 1203 471 1340 1110 46 211 44 113 45 3638 l0
3332 -1220 0 -1220 0 0 -365z"/>
<path d="M8076 10417 c-3 -12 -402 -1775 -886 -3917 -484 -2142 -885 -3912
-889 -3933 l-9 -37 426 2 426 3 202 890 c112 490 206 900 209 912 l5 23 1160
0 1159 0 10 -37 c6 -21 96 -416 201 -878 105 -462 195 -857 201 -877 l10 -38
425 0 c400 0 425 1 420 18 -3 9 -404 1779 -891 3932 -486 2153 -887 3925 -890
3938 l-5 22 -639 0 -639 0 -6 -23z m1139 -3147 c267 -1180 488 -2153 491
-2162 5 -17 -47 -18 -991 -18 l-995 0 5 23 c3 12 224 992 490 2177 267 1185
488 2162 492 2170 4 10 8 6 14 -15 4 -16 227 -995 494 -2175z"/>
</g>
<style>
        path { fill: #000; }
        @media (prefers-color-scheme: dark) {
            path { fill: #FFF; }
        }
    </style>
</svg>
